<svg xmlns="http://www.w3.org/2000/svg" xmlns:svg="http://www.w3.org/2000/svg" id="svg2" width="346.667" height="112" version="1.1" viewBox="0 0 346.667 112" xml:space="preserve"><metadata id="metadata8"/><defs id="defs6"><clipPath id="clipPath18" clipPathUnits="userSpaceOnUse"><path id="path16" d="M 0,84 H 260 V 0 H 0 Z"/></clipPath><clipPath id="clipPath460" clipPathUnits="userSpaceOnUse"><path id="path458" d="M 0,84 H 260 V 0 H 0 Z"/></clipPath><clipPath id="clipPath480" clipPathUnits="userSpaceOnUse"><path id="path478" d="M 0,84 H 260 V 0 H 0 Z"/></clipPath><clipPath id="clipPath496" clipPathUnits="userSpaceOnUse"><path id="path494" d="M 0,84 H 260 V 0 H 0 Z"/></clipPath><clipPath id="clipPath516" clipPathUnits="userSpaceOnUse"><path id="path514" d="M 0,84 H 260 V 0 H 0 Z"/></clipPath></defs><g id="g10" transform="matrix(1.3333333,0,0,-1.3333333,0,112)"><g id="g12"><g id="g14" clip-path="url(#clipPath18)"><g id="g20" transform="translate(32.6662,56.8562)"><path id="path22" style="fill:none;stroke:#636b70;stroke-width:.588;stroke-linecap:butt;stroke-linejoin:miter;stroke-miterlimit:3.86299992;stroke-dasharray:none;stroke-opacity:1" d="m 0,0 v -43.743 c 0,-0.84 -0.649,-1.514 -1.448,-1.514 h -13.2 c -0.882,0.019 -1.519,-1.514 -1.519,-1.514 0,0 -0.64,1.533 -1.561,1.514 h -13.17 c -0.799,0 -1.448,0.674 -1.448,1.514 L -32.351,0 Z"/></g><g id="g24" transform="translate(21.3435,49.8923)"><path id="path26" style="fill:none;stroke:#636b70;stroke-width:.29300001;stroke-linecap:butt;stroke-linejoin:miter;stroke-miterlimit:3.86400008;stroke-dasharray:none;stroke-opacity:1" d="m 0,0 -1.286,2.133 c -1.54,-0.375 -1.163,1.016 -0.325,1.559 0.917,0.601 1.952,0.388 1.286,-0.935 0,0 0.298,-0.501 0.794,-1.317 C 0.469,1.44 0.131,0.77 0,0 Z"/></g><g id="g28" transform="translate(27.0329,42.7537)"><path id="path30" style="fill:none;stroke:#636b70;stroke-width:.29300001;stroke-linecap:butt;stroke-linejoin:miter;stroke-miterlimit:3.86400008;stroke-dasharray:none;stroke-opacity:1" d="M 0,0 3.5,-5.779 3.247,-6.048 2.018,-5.036 c 0,0 -0.074,0.844 -0.272,1.015 -0.658,0.593 -0.268,0.917 -0.522,1.469 -0.255,0.547 -1.751,0.971 -2.101,1.791 0.009,-0.041 -0.575,0.962 -0.575,0.962 C -0.118,0.442 0,0 0,0 Z"/></g><g id="g32" transform="translate(22.9221,49.5681)"><path id="path34" style="fill:none;stroke:#636b70;stroke-width:.29300001;stroke-linecap:butt;stroke-linejoin:miter;stroke-miterlimit:3.86400008;stroke-dasharray:none;stroke-opacity:1" d="M 0,0 C -0.004,0.014 1.246,-2.128 1.241,-2.102 0.47,-2.001 0.092,-1.772 -0.062,-1.34 -0.241,-0.852 -0.101,-0.201 0,0 Z"/></g><g id="g36" transform="translate(4.2024,29.2166)"><path id="path38" style="fill:none;stroke:#636b70;stroke-width:.29300001;stroke-linecap:butt;stroke-linejoin:miter;stroke-miterlimit:3.86400008;stroke-dasharray:none;stroke-opacity:1" d="M 0,0 2.734,-7.175"/></g><g id="g40" transform="translate(4.426,29.0115)"><path id="path42" style="fill:none;stroke:#636b70;stroke-width:.29300001;stroke-linecap:butt;stroke-linejoin:miter;stroke-miterlimit:3.86400008;stroke-dasharray:none;stroke-opacity:1" d="M 0,0 2.536,-5.101"/></g><g id="g44" transform="translate(4.6101,28.9294)"><path id="path46" style="fill:none;stroke:#636b70;stroke-width:.29300001;stroke-linecap:butt;stroke-linejoin:miter;stroke-miterlimit:3.86400008;stroke-dasharray:none;stroke-opacity:1" d="M 0,0 2.308,-3.596"/></g><g id="g48" transform="translate(4.7463,28.9968)"><path id="path50" style="fill:none;stroke:#636b70;stroke-width:.29300001;stroke-linecap:butt;stroke-linejoin:miter;stroke-miterlimit:3.86400008;stroke-dasharray:none;stroke-opacity:1" d="M 0,0 2.119,-2.615"/></g><g id="g52" transform="translate(4.7204,29.239)"><path id="path54" style="fill:none;stroke:#636b70;stroke-width:.29300001;stroke-linecap:butt;stroke-linejoin:miter;stroke-miterlimit:3.86400008;stroke-dasharray:none;stroke-opacity:1" d="M 0,0 3.066,-3.009"/></g><g id="g56" transform="translate(4.6936,29.4177)"><path id="path58" style="fill:none;stroke:#636b70;stroke-width:.29300001;stroke-linecap:butt;stroke-linejoin:miter;stroke-miterlimit:3.86400008;stroke-dasharray:none;stroke-opacity:1" d="M 0,0 4.204,-3.269"/></g><g id="g60" transform="translate(4.6326,29.5632)"><path id="path62" style="fill:none;stroke:#636b70;stroke-width:.29300001;stroke-linecap:butt;stroke-linejoin:miter;stroke-miterlimit:3.86400008;stroke-dasharray:none;stroke-opacity:1" d="M 0,0 6.164,-3.761"/></g><g id="g64" transform="translate(9.0198,41.0076)"><path id="path66" style="fill:none;stroke:#636b70;stroke-width:.29300001;stroke-linecap:butt;stroke-linejoin:miter;stroke-miterlimit:3.86400008;stroke-dasharray:none;stroke-opacity:1" d="M 0,0 -1.054,-0.005 -1.149,-2.219 H 0.092 Z"/></g><g id="g68" transform="translate(7.9753,41.615)"><path id="path70" style="fill:none;stroke:#636b70;stroke-width:.29300001;stroke-linecap:butt;stroke-linejoin:miter;stroke-miterlimit:3.86400008;stroke-dasharray:none;stroke-opacity:1" d="M 0,0 H 1.022 L 0.518,11.891 Z"/></g><path id="path72" style="fill:none;stroke:#636b70;stroke-width:.29300001;stroke-linecap:butt;stroke-linejoin:miter;stroke-miterlimit:3.86400008;stroke-dasharray:none;stroke-opacity:1" d="m 6.391,41.6 h 4.198 V 41.007 H 6.391 Z"/><g id="g74" transform="translate(9.8137,38.7839)"><path id="path76" style="fill:none;stroke:#636b70;stroke-width:.29300001;stroke-linecap:butt;stroke-linejoin:miter;stroke-miterlimit:3.86400008;stroke-dasharray:none;stroke-opacity:1" d="m 0,0 c 0,-0.894 -0.592,-1.509 -1.321,-1.509 -0.732,0 -1.324,0.619 -1.324,1.509 z"/></g><g id="g78" transform="translate(6.5622,47.0159)"><path id="path80" style="fill:none;stroke:#636b70;stroke-width:.29300001;stroke-linecap:butt;stroke-linejoin:miter;stroke-miterlimit:3.86400008;stroke-dasharray:none;stroke-opacity:1" d="m 0,0 c 0,-1.14 -0.903,-2.065 -2.021,-2.065 -1.115,0 -2.023,0.925 -2.023,2.065 z"/></g><g id="g82" transform="translate(23.1726,50.0007)"><path id="path84" style="fill:none;stroke:#636b70;stroke-width:.29300001;stroke-linecap:butt;stroke-linejoin:miter;stroke-miterlimit:3.86400008;stroke-dasharray:none;stroke-opacity:1" d="m 0,0 c 0,0 0.447,-0.629 0.921,-0.337 0.877,0.538 -0.202,3.606 -2.004,2.042 -0.4,-0.342 -0.931,-1.933 -0.826,-2.954 0.101,-1.025 0.54,-2.314 1.65,-2.584 0.667,-0.16 2,0.224 2.554,-0.72 0.412,0.16 0.863,1.851 -0.29,1.906 -1.132,0.054 -2.093,0.254 -2.264,0.751 C -0.671,-0.71 0,0 0,0 Z"/></g><g id="g86" transform="translate(24.1902,45.2107)"><path id="path88" style="fill:none;stroke:#636b70;stroke-width:.29300001;stroke-linecap:butt;stroke-linejoin:miter;stroke-miterlimit:3.86400008;stroke-dasharray:none;stroke-opacity:1" d="m 0,0 c -0.443,-0.229 -0.772,-0.762 -0.614,-1.358 0.154,-0.593 0.851,-0.954 1.838,-0.898 0.053,0.004 0.105,0.004 0.153,0.009 0.874,0.069 1.259,0.177 1.553,-0.333 0.313,0.378 0.219,1.222 -0.219,1.614 C 2.035,-0.373 0.29,-1.13 0,0 Z"/></g><g id="g90" transform="translate(26.1379,41.9783)"><path id="path92" style="fill:none;stroke:#636b70;stroke-width:.29300001;stroke-linecap:butt;stroke-linejoin:miter;stroke-miterlimit:3.86400008;stroke-dasharray:none;stroke-opacity:1" d="m 0,0 c -0.106,-0.482 -0.421,-1.139 -0.157,-1.727 0.364,-0.812 1.034,-0.382 1.245,-0.866 0.207,-0.487 0.009,-1.212 0.465,-1.354 0.882,-0.269 0.571,-1.189 1.04,-1.134 0.408,0.045 0.426,1.48 0,1.892 C 1.97,-2.593 2.382,-2.159 2.071,-1.672 1.763,-1.188 0.623,-0.971 0,0 Z"/></g><g id="g94" transform="translate(17.1877,38.9529)"><path id="path96" style="fill:none;stroke:#636b70;stroke-width:.18799999;stroke-linecap:butt;stroke-linejoin:miter;stroke-miterlimit:3.86400008;stroke-dasharray:none;stroke-opacity:1" d="m 0,0 c 0,-0.032 -0.026,-0.06 -0.056,-0.06 -0.031,0 -0.057,0.028 -0.057,0.06 0,0.036 0.026,0.063 0.057,0.063 C -0.026,0.063 0,0.036 0,0 Z"/></g><g id="g98" transform="translate(23.6326,51.0764)"><path id="path100" style="fill:none;stroke:#636b70;stroke-width:.18799999;stroke-linecap:butt;stroke-linejoin:miter;stroke-miterlimit:3.86400008;stroke-dasharray:none;stroke-opacity:1" d="M 0,0 C 0.084,0.033 0.18,-0.036 0.219,-0.145 0.259,-0.259 0.224,-0.374 0.141,-0.405 0.053,-0.437 -0.043,-0.373 -0.083,-0.259 -0.123,-0.15 -0.088,-0.032 0,0 Z"/></g><g id="g102" transform="translate(13.5647,22.0417)"><path id="path104" style="fill:none;stroke:#636b70;stroke-width:.29300001;stroke-linecap:butt;stroke-linejoin:miter;stroke-miterlimit:3.86400008;stroke-dasharray:none;stroke-opacity:1" d="m 0,0 c 0,-1.723 -1.339,-3.113 -2.983,-3.113 -1.65,0 -2.984,1.39 -2.984,3.113 0,1.719 1.334,3.113 2.984,3.113 C -1.339,3.113 0,1.719 0,0 Z"/></g><g id="g106" transform="translate(13.6658,18.7869)"><path id="path108" style="fill:none;stroke:#636b70;stroke-width:.29300001;stroke-linecap:butt;stroke-linejoin:miter;stroke-miterlimit:3.86400008;stroke-dasharray:none;stroke-opacity:1" d="m 0,0 v -4.402 h -1.452 v 2.912 h -8.924 V 0 Z"/></g><g id="g110" transform="translate(5.7995,21.7)"><path id="path112" style="fill:none;stroke:#636b70;stroke-width:.29300001;stroke-linecap:butt;stroke-linejoin:miter;stroke-miterlimit:3.86400008;stroke-dasharray:none;stroke-opacity:1" d="m 0,0 c 0,-0.351 -0.271,-0.634 -0.61,-0.634 -0.338,0 -0.61,0.283 -0.61,0.634 0,0.347 0.272,0.633 0.61,0.633 C -0.271,0.633 0,0.347 0,0 Z"/></g><g id="g114" transform="translate(4.6057,21.8826)"><path id="path116" style="fill:none;stroke:#636b70;stroke-width:.29300001;stroke-linecap:butt;stroke-linejoin:miter;stroke-miterlimit:3.86400008;stroke-dasharray:none;stroke-opacity:1" d="m 0,0 -1.039,-3.081 1.61,2.26"/></g><g id="g118" transform="translate(5.7727,21.8826)"><path id="path120" style="fill:none;stroke:#636b70;stroke-width:.29300001;stroke-linecap:butt;stroke-linejoin:miter;stroke-miterlimit:3.86400008;stroke-dasharray:none;stroke-opacity:1" d="m 0,0 1.04,-3.081 -1.609,2.26"/></g><g id="g122" transform="translate(8.0232,23.5046)"><path id="path124" style="fill:none;stroke:#636b70;stroke-width:.29300001;stroke-linecap:butt;stroke-linejoin:miter;stroke-miterlimit:3.86400008;stroke-dasharray:none;stroke-opacity:1" d="m 0,0 c -0.149,-0.852 1.374,-0.838 1.247,-1.299 -0.312,-1.107 0.311,-1.066 0.412,-1.649 0,0 -0.101,-1.382 0.258,-1.488 0.211,0.297 0.053,0.876 0.312,1.186 0.272,0.328 0.65,0.502 0.65,1.086 0,0.419 -0.562,0.551 -0.725,0.674 -0.184,0.136 -0.517,0.246 -0.755,0.246 0,0 -0.591,1.189 -0.412,1.404 0.207,0.192 0.518,-0.269 0.65,-0.269 0.271,0 0.32,0.57 0.75,0.57 0,0.132 -0.026,0.551 -0.105,0.593 C 1.856,1.054 1.584,0.839 1.22,1.3 1.22,1.3 0.154,0.854 0,0 Z"/></g><g id="g126" transform="translate(11.5119,25.032)"><path id="path128" style="fill:none;stroke:#636b70;stroke-width:.29300001;stroke-linecap:butt;stroke-linejoin:miter;stroke-miterlimit:3.86400008;stroke-dasharray:none;stroke-opacity:1" d="m 0,0 c -0.334,0.137 -0.843,0.082 -0.843,0.082 0.438,-0.214 0.413,-0.825 0.597,-0.825 0.359,0 0.539,0.31 0.904,0.378 C 0.663,-0.365 0.333,-0.132 0,0 Z"/></g><g id="g130" transform="translate(13.5344,22.6531)"><path id="path132" style="fill:none;stroke:#636b70;stroke-width:.29300001;stroke-linecap:butt;stroke-linejoin:miter;stroke-miterlimit:3.86400008;stroke-dasharray:none;stroke-opacity:1" d="m 0,0 c 0,0.779 -1,1.745 -1,1.745 0,0 -0.493,-0.948 -0.26,-1.919 0.232,-0.027 0.908,0.055 0.908,0.055 0.166,-0.082 0.106,-0.369 0.106,-0.543 0,-0.433 -0.131,-1.545 -0.131,-1.545 0,0 0.377,1.428 0.377,2.207 z"/></g><g id="g134" transform="translate(4.4094,30.2283)"><path id="path136" style="fill:none;stroke:#636b70;stroke-width:.18799999;stroke-linecap:butt;stroke-linejoin:miter;stroke-miterlimit:3.86400008;stroke-dasharray:none;stroke-opacity:1" d="m 0,0 -0.299,0.67 -0.303,-0.689 -0.702,-0.086 0.513,-0.501 -0.14,-0.73 0.623,0.356 0.636,-0.364 -0.127,0.741 0.501,0.498 z"/></g><g id="g138" transform="translate(16.4905,28.7244)"><path id="path140" style="fill:none;stroke:#636b70;stroke-width:.588;stroke-linecap:butt;stroke-linejoin:miter;stroke-miterlimit:3.86299992;stroke-dasharray:none;stroke-opacity:1" d="M 0,0 V -18.515"/></g><g id="g142" transform="translate(19.0657,19.7175)"><path id="path144" style="fill:none;stroke:#636b70;stroke-width:.29300001;stroke-linecap:round;stroke-linejoin:round;stroke-miterlimit:3.86400008;stroke-dasharray:none;stroke-opacity:1" d="m 0,0 -0.767,-0.907 c -0.101,-0.119 -0.048,-0.958 0.004,-1.199 0.606,-0.25 9.177,-3.054 9.177,-3.054 l 3.488,3.947 -0.543,0.246 c -0.154,0.261 0.337,1.126 0.337,1.126 l -1.689,0.694"/></g><g id="g146" transform="translate(27.4841,16.3074)"><path id="path148" style="fill:none;stroke:#636b70;stroke-width:.29300001;stroke-linecap:round;stroke-linejoin:round;stroke-miterlimit:3.86400008;stroke-dasharray:none;stroke-opacity:1" d="m 0,0 c -0.136,-0.113 -0.104,-1.595 0.009,-1.76 0.005,0 3.475,3.957 3.475,3.957 L 3.125,2.539 C 3.093,2.896 3.186,3.538 3.186,3.538 Z"/></g><g id="g150" transform="translate(27.1599,18.7419)"><path id="path152" style="fill:none;stroke:#636b70;stroke-width:.29300001;stroke-linecap:round;stroke-linejoin:round;stroke-miterlimit:3.86400008;stroke-dasharray:none;stroke-opacity:1" d="M 0,0 C -0.141,-0.063 -0.228,-2.006 -0.035,-2.019 -0.03,-2.015 2.83,1.362 2.83,1.362 l -0.276,0.16 z"/></g><g id="g154" transform="translate(20.1145,21.3074)"><path id="path156" style="fill:none;stroke:#636b70;stroke-width:.18799999;stroke-linecap:round;stroke-linejoin:round;stroke-miterlimit:3.86400008;stroke-dasharray:none;stroke-opacity:1" d="m 0,0 -0.895,-0.952 c -0.131,-0.069 -0.035,-0.961 0,-1.208 0.311,-0.091 7.901,-2.434 7.901,-2.434 l 2.861,3.419 -0.909,0.337"/></g><g id="g158" transform="translate(28.4021,26.2537)"><path id="path160" style="fill:none;stroke:#636b70;stroke-width:.29300001;stroke-linecap:butt;stroke-linejoin:miter;stroke-miterlimit:3.86400008;stroke-dasharray:none;stroke-opacity:1" d="m 0,0 v -5.656 c -0.741,0.181 -3.537,0.552 -3.822,0.095 -0.233,0.46 -2.474,0.25 -3.821,-0.059 v 5.441 c -0.17,-0.787 -0.688,-1.074 -0.688,-1.074 v -4.796 l 3.979,0.297 c 0.442,-0.297 0.948,-0.105 1.114,-0.027 l 3.821,-0.128 v 5.369 c 0,0 -0.377,0.036 -0.583,0.538 z"/></g><g id="g162" transform="translate(28.4021,20.5974)"><path id="path164" style="fill:none;stroke:#636b70;stroke-width:.29300001;stroke-linecap:butt;stroke-linejoin:miter;stroke-miterlimit:3.86400008;stroke-dasharray:none;stroke-opacity:1" d="m 0,0 c -0.812,0 -3.238,0.674 -3.804,0.081 0.518,0.015 0.531,-0.337 0,-0.35 -0.571,0.041 -0.483,0.378 0,0.337 -0.495,0.661 -3.834,-0.137 -3.834,-0.137 l -0.005,5.547 c 0.926,0 1.887,0.465 2.536,0.465 0.649,0 1.338,-0.287 1.338,-0.287 0,0 1.022,0.429 1.746,0.429 0.856,0 1.298,-0.725 1.983,-0.479 C -0.053,5.265 0,0 0,0 Z"/></g><g id="g166" transform="translate(24.6203,26.2449)"><path id="path168" style="fill:none;stroke:#636b70;stroke-width:.18799999;stroke-linecap:butt;stroke-linejoin:miter;stroke-miterlimit:3.86400008;stroke-dasharray:none;stroke-opacity:1" d="M 0,0 -0.031,-5.548"/></g><g id="g170" transform="translate(20.6457,18.6912)"><path id="path172" style="fill:none;stroke:#636b70;stroke-width:.20299999;stroke-linecap:butt;stroke-linejoin:miter;stroke-miterlimit:3.86400008;stroke-dasharray:none;stroke-opacity:1" d="m 0,0 -0.285,-0.305 c -0.136,-0.154 -0.136,-1.404 0,-1.467 -0.005,-0.024 0.618,-0.192 0.346,-0.06 -0.061,0.401 -0.04,1.268 0.066,1.39 l 0.311,0.32 z"/></g><g id="g174" transform="translate(21.6409,18.3904)"><path id="path176" style="fill:none;stroke:#636b70;stroke-width:.20299999;stroke-linecap:butt;stroke-linejoin:miter;stroke-miterlimit:3.86400008;stroke-dasharray:none;stroke-opacity:1" d="m 0,0 -0.272,-0.3 c -0.131,-0.16 -0.188,-1.441 -0.053,-1.504 0,-0.023 0.677,-0.155 0.4,-0.023 -0.061,0.401 -0.035,1.266 0.066,1.39 l 0.289,0.3 z"/></g><g id="g178" transform="translate(24.0666,17.6482)"><path id="path180" style="fill:none;stroke:#636b70;stroke-width:.20299999;stroke-linecap:butt;stroke-linejoin:miter;stroke-miterlimit:3.86400008;stroke-dasharray:none;stroke-opacity:1" d="M 0,0 -0.329,-0.355 C -0.46,-0.516 -0.53,-1.732 -0.39,-1.796 c -0.004,-0.023 0.689,-0.219 0.408,-0.087 -0.057,0.402 -0.035,1.267 0.071,1.391 l 0.35,0.368 z"/></g><g id="g182" transform="translate(24.9841,17.3523)"><path id="path184" style="fill:none;stroke:#636b70;stroke-width:.20299999;stroke-linecap:butt;stroke-linejoin:miter;stroke-miterlimit:3.86400008;stroke-dasharray:none;stroke-opacity:1" d="m 0,0 -0.324,-0.356 c -0.132,-0.161 -0.189,-1.385 -0.053,-1.45 -0.005,-0.028 0.675,-0.21 0.398,-0.077 -0.06,0.401 -0.034,1.267 0.067,1.39 l 0.35,0.369 z"/></g><g id="g186" transform="translate(20.6413,20.2361)"><path id="path188" style="fill:none;stroke:#636b70;stroke-width:.20299999;stroke-linecap:butt;stroke-linejoin:miter;stroke-miterlimit:3.86400008;stroke-dasharray:none;stroke-opacity:1" d="m 0,0 -0.216,-0.228 c -0.101,-0.122 -0.122,-1.167 -0.016,-1.216 0,-0.018 0.285,-0.118 0.324,-0.105 0.044,0 -0.027,0.11 -0.044,0.159 C 0,-1.084 0.021,-0.428 0.1,-0.332 l 0.237,0.241 z"/></g><g id="g190" transform="translate(24.633,26.2898)"><path id="path192" style="fill:none;stroke:#636b70;stroke-width:.29300001;stroke-linecap:butt;stroke-linejoin:miter;stroke-miterlimit:3.86400008;stroke-dasharray:none;stroke-opacity:1" d="m 0,0 c -1.036,0.032 -1.316,0.89 -1.316,0.89 l 0.399,0.017 c 0,0 -0.504,0.32 -0.391,0.634 -0.008,0.014 0.352,-0.041 0.352,-0.041 0,0 -0.154,0.433 -0.013,0.715 l 0.32,-0.141 c 0.092,0.573 0.662,0.707 0.662,0.707 0,0 0.531,-0.074 0.689,-0.707 l 0.32,0.141 C 1.159,1.933 1.009,1.5 1.009,1.5 c 0,0 0.36,0.055 0.355,0.041 C 1.475,1.227 0.97,0.907 0.97,0.907 L 1.374,0.89 C 1.374,0.89 1.035,0.032 0,0 Z"/></g><g id="g194" transform="translate(0.2898,33.9568)"><path id="path196" style="fill:none;stroke:#636b70;stroke-width:.588;stroke-linecap:butt;stroke-linejoin:miter;stroke-miterlimit:3.86299992;stroke-dasharray:none;stroke-opacity:1" d="M 0,0 H 11.174"/></g><g id="g198" transform="translate(21.5622,33.9568)"><path id="path200" style="fill:none;stroke:#636b70;stroke-width:.56699997;stroke-linecap:butt;stroke-linejoin:miter;stroke-miterlimit:3.86400008;stroke-dasharray:none;stroke-opacity:1" d="M 0,0 H 11.086"/></g><g id="g202" transform="translate(12.9109,31.7322)"><path id="path204" style="fill:none;stroke:#fff;stroke-width:.29300001;stroke-linecap:butt;stroke-linejoin:miter;stroke-miterlimit:3.86400008;stroke-dasharray:none;stroke-opacity:1" d="M 0,0 3.598,6.514 7.16,0 Z"/></g><g id="g206" transform="translate(16.4783,35.0232)"><path id="path208" style="fill:none;stroke:#636b70;stroke-width:.29300001;stroke-linecap:butt;stroke-linejoin:miter;stroke-miterlimit:3.86400008;stroke-dasharray:none;stroke-opacity:1" d="M 0,0 C 1.289,0 2.408,-1.099 2.399,-1.275 2.408,-1.44 1.289,-2.548 0,-2.548 c -1.291,0 -2.414,1.108 -2.405,1.273 C -2.418,-1.099 -1.339,0.055 0,0 Z"/></g><g id="g210" transform="translate(17.675,33.7527)"><path id="path212" style="fill:none;stroke:#636b70;stroke-width:.29300001;stroke-linecap:butt;stroke-linejoin:miter;stroke-miterlimit:3.86400008;stroke-dasharray:none;stroke-opacity:1" d="m 0,0 c 0,-0.693 -0.536,-1.255 -1.202,-1.255 -0.662,0 -1.198,0.562 -1.198,1.255 0,0.691 0.536,1.253 1.198,1.253 C -0.536,1.253 0,0.691 0,0 Z"/></g><g id="g214" transform="translate(16.6262,33.7527)"><path id="path216" style="fill:#636b70;fill-opacity:1;fill-rule:nonzero;stroke:none" d="m 0,0 c 0,-0.088 -0.069,-0.155 -0.153,-0.155 -0.084,0 -0.149,0.067 -0.149,0.155 0,0.086 0.065,0.153 0.149,0.153 C -0.069,0.153 0,0.086 0,0"/></g><g id="g218" transform="translate(16.6262,33.7527)"><path id="path220" style="fill:none;stroke:#636b70;stroke-width:.18799999;stroke-linecap:butt;stroke-linejoin:miter;stroke-miterlimit:3.86400008;stroke-dasharray:none;stroke-opacity:1" d="m 0,0 c 0,-0.088 -0.069,-0.155 -0.153,-0.155 -0.084,0 -0.149,0.067 -0.149,0.155 0,0.086 0.065,0.153 0.149,0.153 C -0.069,0.153 0,0.086 0,0 Z"/></g><g id="g222" transform="translate(16.5129,38.3826)"><path id="path224" style="fill:none;stroke:#636b70;stroke-width:.29300001;stroke-linecap:butt;stroke-linejoin:miter;stroke-miterlimit:3.86400008;stroke-dasharray:none;stroke-opacity:1" d="m 0,0 c -2.356,0 -4.287,-2.001 -4.287,-4.458 0,-2.461 1.91,-4.452 4.265,-4.452 2.355,0 4.264,1.991 4.264,4.452 0,2.21 -1.544,4.048 -3.567,4.395 -0.754,-0.06 -0.794,0.227 -0.82,0.374 -0.071,0.401 0.435,0.637 0.79,0.637 0.623,0 0.57,-0.378 0.943,-0.461 1.983,-0.701 3.409,-2.656 3.409,-4.964 0,-2.893 -2.247,-5.236 -5.019,-5.236 -2.769,0 -5.019,2.348 -5.019,5.236 0,2.896 2.084,5.124 4.883,4.91 C -0.198,0.241 0,0 0,0 Z"/></g><g id="g226" transform="translate(18.0437,72.0208)"><path id="path228" style="fill:none;stroke:#636b70;stroke-width:.52600002;stroke-linecap:butt;stroke-linejoin:miter;stroke-miterlimit:3.86299992;stroke-dasharray:none;stroke-opacity:1" d="m 0,0 -1.558,3.259 -1.535,-3.221 -3.47,-0.526 2.501,-2.579 -0.518,-3.492 3.022,1.592 3.019,-1.592 -0.552,3.529 2.421,2.466 z"/></g><g id="g230" transform="translate(16.4861,75.1624)"><path id="path232" style="fill:none;stroke:#636b70;stroke-width:.271;stroke-linecap:butt;stroke-linejoin:miter;stroke-miterlimit:3.86299992;stroke-dasharray:none;stroke-opacity:1" d="M 0,0 V -8.109"/></g><g id="g234" transform="translate(11.5993,71.4563)"><path id="path236" style="fill:none;stroke:#636b70;stroke-width:.271;stroke-linecap:butt;stroke-linejoin:miter;stroke-miterlimit:3.86299992;stroke-dasharray:none;stroke-opacity:1" d="M 0,0 7.353,-2.466"/></g><g id="g238" transform="translate(13.4636,65.4622)"><path id="path240" style="fill:none;stroke:#636b70;stroke-width:.271;stroke-linecap:butt;stroke-linejoin:miter;stroke-miterlimit:3.86299992;stroke-dasharray:none;stroke-opacity:1" d="M 0,0 4.58,6.559"/></g><g id="g242" transform="translate(19.5046,65.4622)"><path id="path244" style="fill:none;stroke:#636b70;stroke-width:.271;stroke-linecap:butt;stroke-linejoin:miter;stroke-miterlimit:3.86299992;stroke-dasharray:none;stroke-opacity:1" d="M 0,0 -4.554,6.596"/></g><g id="g246" transform="translate(21.3738,71.4563)"><path id="path248" style="fill:none;stroke:#636b70;stroke-width:.271;stroke-linecap:butt;stroke-linejoin:miter;stroke-miterlimit:3.86299992;stroke-dasharray:none;stroke-opacity:1" d="M 0,0 -7.393,-2.503"/></g><g id="g250" transform="translate(13.9421,68.9216)"><path id="path252" style="fill:none;stroke:#636b70;stroke-width:.52600002;stroke-linecap:butt;stroke-linejoin:miter;stroke-miterlimit:3.86299992;stroke-dasharray:none;stroke-opacity:1" d="M 0,0 -10.393,-3.555"/></g><g id="g254" transform="translate(29.3713,74.2087)"><path id="path256" style="fill:none;stroke:#636b70;stroke-width:.52600002;stroke-linecap:butt;stroke-linejoin:miter;stroke-miterlimit:3.86299992;stroke-dasharray:none;stroke-opacity:1" d="M 0,0 -7.993,-2.739"/></g><g id="g258" transform="translate(14.9416,72.0627)"><path id="path260" style="fill:none;stroke:#636b70;stroke-width:.52600002;stroke-linecap:butt;stroke-linejoin:miter;stroke-miterlimit:3.86299992;stroke-dasharray:none;stroke-opacity:1" d="M 0,0 -6.417,9.202"/></g><g id="g262" transform="translate(25.427,56.8469)"><path id="path264" style="fill:none;stroke:#636b70;stroke-width:.52600002;stroke-linecap:butt;stroke-linejoin:miter;stroke-miterlimit:3.86299992;stroke-dasharray:none;stroke-opacity:1" d="M 0,0 -5.979,8.638"/></g><g id="g266" transform="translate(18.0481,72.03)"><path id="path268" style="fill:none;stroke:#636b70;stroke-width:.52600002;stroke-linecap:butt;stroke-linejoin:miter;stroke-miterlimit:3.86299992;stroke-dasharray:none;stroke-opacity:1" d="M 0,0 6.388,9.276"/></g><g id="g270" transform="translate(7.4045,56.8469)"><path id="path272" style="fill:none;stroke:#636b70;stroke-width:.52600002;stroke-linecap:butt;stroke-linejoin:miter;stroke-miterlimit:3.86299992;stroke-dasharray:none;stroke-opacity:1" d="M 0,0 6.055,8.638"/></g><g id="g274" transform="translate(11.5691,71.47)"><path id="path276" style="fill:none;stroke:#636b70;stroke-width:.52600002;stroke-linecap:butt;stroke-linejoin:miter;stroke-miterlimit:3.86299992;stroke-dasharray:none;stroke-opacity:1" d="M 0,0 -7.981,2.739"/></g><g id="g278" transform="translate(29.3362,65.3665)"><path id="path280" style="fill:none;stroke:#636b70;stroke-width:.52600002;stroke-linecap:butt;stroke-linejoin:miter;stroke-miterlimit:3.86299992;stroke-dasharray:none;stroke-opacity:1" d="M 0,0 -10.349,3.601"/></g><g id="g282" transform="translate(16.4861,84.0002)"><path id="path284" style="fill:none;stroke:#636b70;stroke-width:.52600002;stroke-linecap:butt;stroke-linejoin:miter;stroke-miterlimit:3.86299992;stroke-dasharray:none;stroke-opacity:1" d="M 0,0 V -9.043"/></g><g id="g286" transform="translate(13.8015,67.6873)"><path id="path288" style="fill:none;stroke:#636b70;stroke-width:.271;stroke-linecap:butt;stroke-linejoin:miter;stroke-miterlimit:3.86299992;stroke-dasharray:none;stroke-opacity:1" d="M 0,0 -4.273,-3.209"/></g><g id="g290" transform="translate(23.4568,75.0432)"><path id="path292" style="fill:none;stroke:#636b70;stroke-width:.271;stroke-linecap:butt;stroke-linejoin:miter;stroke-miterlimit:3.86299992;stroke-dasharray:none;stroke-opacity:1" d="M 0,0 -4.198,-3.186"/></g><g id="g294" transform="translate(15.4817,66.5017)"><path id="path296" style="fill:none;stroke:#636b70;stroke-width:.271;stroke-linecap:butt;stroke-linejoin:miter;stroke-miterlimit:3.86299992;stroke-dasharray:none;stroke-opacity:1" d="M 0,0 -1.636,-5.26"/></g><g id="g298" transform="translate(19.1755,78.3616)"><path id="path300" style="fill:none;stroke:#636b70;stroke-width:.271;stroke-linecap:butt;stroke-linejoin:miter;stroke-miterlimit:3.86299992;stroke-dasharray:none;stroke-opacity:1" d="M 0,0 -1.623,-5.215"/></g><g id="g302" transform="translate(17.5168,66.4968)"><path id="path304" style="fill:none;stroke:#636b70;stroke-width:.271;stroke-linecap:butt;stroke-linejoin:miter;stroke-miterlimit:3.86299992;stroke-dasharray:none;stroke-opacity:1" d="M 0,0 1.624,-5.219"/></g><g id="g306" transform="translate(13.8108,78.4119)"><path id="path308" style="fill:none;stroke:#636b70;stroke-width:.271;stroke-linecap:butt;stroke-linejoin:miter;stroke-miterlimit:3.86299992;stroke-dasharray:none;stroke-opacity:1" d="M 0,0 1.648,-5.306"/></g><g id="g310" transform="translate(19.1409,67.7644)"><path id="path312" style="fill:none;stroke:#636b70;stroke-width:.271;stroke-linecap:butt;stroke-linejoin:miter;stroke-miterlimit:3.86299992;stroke-dasharray:none;stroke-opacity:1" d="M 0,0 4.237,-3.218"/></g><g id="g314" transform="translate(9.4543,75.1072)"><path id="path316" style="fill:none;stroke:#636b70;stroke-width:.271;stroke-linecap:butt;stroke-linejoin:miter;stroke-miterlimit:3.86299992;stroke-dasharray:none;stroke-opacity:1" d="M 0,0 4.233,-3.209"/></g><g id="g318" transform="translate(19.7854,69.7654)"><path id="path320" style="fill:none;stroke:#636b70;stroke-width:.271;stroke-linecap:butt;stroke-linejoin:miter;stroke-miterlimit:3.86299992;stroke-dasharray:none;stroke-opacity:1" d="M 0,0 H 5.344"/></g><g id="g322" transform="translate(7.8786,69.7654)"><path id="path324" style="fill:none;stroke:#636b70;stroke-width:.271;stroke-linecap:butt;stroke-linejoin:miter;stroke-miterlimit:3.86299992;stroke-dasharray:none;stroke-opacity:1" d="M 0,0 H 5.265"/></g><g id="g326" transform="translate(25.2561,45.7126)"><path id="path328" style="fill:none;stroke:#636b70;stroke-width:.29300001;stroke-linecap:butt;stroke-linejoin:miter;stroke-miterlimit:3.86400008;stroke-dasharray:none;stroke-opacity:1" d="m 0,0 c 0.237,-0.36 0.711,-1.204 0.702,-1.204 0,0 -1.128,-0.082 -1.531,0.31 -0.088,0.142 -0.763,1.277 -0.763,1.277 0,0 1.36,-0.019 1.592,-0.383 z"/></g><g id="g330" transform="translate(6.5364,47.0208)"><path id="path332" style="fill:none;stroke:#636b70;stroke-width:.29300001;stroke-linecap:butt;stroke-linejoin:miter;stroke-miterlimit:3.86400008;stroke-dasharray:none;stroke-opacity:1" d="M 0,0 -1.996,4.776 -3.993,0.008 Z"/></g><g id="g334" transform="translate(10.4719,47.0159)"><path id="path336" style="fill:none;stroke:#636b70;stroke-width:.29300001;stroke-linecap:butt;stroke-linejoin:miter;stroke-miterlimit:3.86400008;stroke-dasharray:none;stroke-opacity:1" d="m 0,0 c 0,-1.14 0.904,-2.065 2.022,-2.065 1.115,0 2.023,0.925 2.023,2.065 z"/></g><g id="g338" transform="translate(10.4978,47.0208)"><path id="path340" style="fill:none;stroke:#636b70;stroke-width:.29300001;stroke-linecap:butt;stroke-linejoin:miter;stroke-miterlimit:3.86400008;stroke-dasharray:none;stroke-opacity:1" d="M 0,0 2.001,4.776 3.992,0.008 Z"/></g><g id="g342" transform="translate(7.9099,39.0984)"><path id="path344" style="fill:none;stroke:#636b70;stroke-width:.29300001;stroke-linecap:butt;stroke-linejoin:miter;stroke-miterlimit:3.86400008;stroke-dasharray:none;stroke-opacity:1" d="M 0,0 1.193,0.584"/></g><g id="g346" transform="translate(7.8708,39.8962)"><path id="path348" style="fill:none;stroke:#636b70;stroke-width:.29300001;stroke-linecap:butt;stroke-linejoin:miter;stroke-miterlimit:3.86400008;stroke-dasharray:none;stroke-opacity:1" d="M 0,0 1.192,0.583"/></g><g id="g350" transform="translate(8.4275,52.3674)"><path id="path352" style="fill:none;stroke:#636b70;stroke-width:.18799999;stroke-linecap:butt;stroke-linejoin:miter;stroke-miterlimit:3.86400008;stroke-dasharray:none;stroke-opacity:1" d="M 0,0 0.04,-0.488 H -3.887 V 0 Z"/></g><g id="g354" transform="translate(8.5544,51.8796)"><path id="path356" style="fill:none;stroke:#636b70;stroke-width:.18799999;stroke-linecap:butt;stroke-linejoin:miter;stroke-miterlimit:3.86400008;stroke-dasharray:none;stroke-opacity:1" d="M 0,0 -0.022,0.488 H 3.926 V 0 Z"/></g><g id="g358" transform="translate(21.7859,25.0271)"><path id="path360" style="fill:none;stroke:#636b70;stroke-width:.18799999;stroke-linecap:butt;stroke-linejoin:miter;stroke-miterlimit:3.86400008;stroke-dasharray:none;stroke-opacity:1" d="M 0,0 C 0.544,0.02 1.247,0.579 2.022,0.311"/></g><g id="g362" transform="translate(21.7815,24.408)"><path id="path364" style="fill:none;stroke:#636b70;stroke-width:.18799999;stroke-linecap:butt;stroke-linejoin:miter;stroke-miterlimit:3.86400008;stroke-dasharray:none;stroke-opacity:1" d="M 0,0 C 0.54,0.018 1.251,0.551 2.027,0.282"/></g><g id="g366" transform="translate(21.7722,23.7917)"><path id="path368" style="fill:none;stroke:#636b70;stroke-width:.18799999;stroke-linecap:butt;stroke-linejoin:miter;stroke-miterlimit:3.86400008;stroke-dasharray:none;stroke-opacity:1" d="M 0,0 C 0.545,0.014 1.256,0.525 2.036,0.251"/></g><g id="g370" transform="translate(21.7688,23.1726)"><path id="path372" style="fill:none;stroke:#636b70;stroke-width:.18799999;stroke-linecap:butt;stroke-linejoin:miter;stroke-miterlimit:3.86400008;stroke-dasharray:none;stroke-opacity:1" d="M 0,0 C 0.544,0.019 1.259,0.497 2.04,0.228"/></g><g id="g374" transform="translate(21.7644,22.5476)"><path id="path376" style="fill:none;stroke:#636b70;stroke-width:.18799999;stroke-linecap:butt;stroke-linejoin:miter;stroke-miterlimit:3.86400008;stroke-dasharray:none;stroke-opacity:1" d="M 0,0 C 0.543,0.019 1.264,0.474 2.04,0.206"/></g><g id="g378" transform="translate(21.76,21.9285)"><path id="path380" style="fill:none;stroke:#636b70;stroke-width:.18799999;stroke-linecap:butt;stroke-linejoin:miter;stroke-miterlimit:3.86400008;stroke-dasharray:none;stroke-opacity:1" d="M 0,0 C 0.543,0.018 1.268,0.45 2.044,0.177"/></g><g id="g382" transform="translate(27.4675,25.2097)"><path id="path384" style="fill:none;stroke:#636b70;stroke-width:.18799999;stroke-linecap:butt;stroke-linejoin:miter;stroke-miterlimit:3.86400008;stroke-dasharray:none;stroke-opacity:1" d="M 0,0 C -0.545,0.019 -1.268,0.396 -2.048,0.128"/></g><g id="g386" transform="translate(27.4675,24.5583)"><path id="path388" style="fill:none;stroke:#636b70;stroke-width:.18799999;stroke-linecap:butt;stroke-linejoin:miter;stroke-miterlimit:3.86400008;stroke-dasharray:none;stroke-opacity:1" d="M 0,0 C -0.545,0.018 -1.268,0.405 -2.048,0.132"/></g><g id="g390" transform="translate(27.4675,23.906)"><path id="path392" style="fill:none;stroke:#636b70;stroke-width:.18799999;stroke-linecap:butt;stroke-linejoin:miter;stroke-miterlimit:3.86400008;stroke-dasharray:none;stroke-opacity:1" d="M 0,0 C -0.545,0.019 -1.268,0.411 -2.045,0.137"/></g><g id="g394" transform="translate(27.4675,23.2537)"><path id="path396" style="fill:none;stroke:#636b70;stroke-width:.18799999;stroke-linecap:butt;stroke-linejoin:miter;stroke-miterlimit:3.86400008;stroke-dasharray:none;stroke-opacity:1" d="M 0,0 C -0.545,0.019 -1.268,0.416 -2.045,0.142"/></g><g id="g398" transform="translate(27.4719,22.5984)"><path id="path400" style="fill:none;stroke:#636b70;stroke-width:.18799999;stroke-linecap:butt;stroke-linejoin:miter;stroke-miterlimit:3.86400008;stroke-dasharray:none;stroke-opacity:1" d="M 0,0 C -0.544,0.019 -1.268,0.423 -2.05,0.155"/></g><g id="g402" transform="translate(27.4719,21.946)"><path id="path404" style="fill:none;stroke:#636b70;stroke-width:.18799999;stroke-linecap:butt;stroke-linejoin:miter;stroke-miterlimit:3.86400008;stroke-dasharray:none;stroke-opacity:1" d="M 0,0 C -0.544,0.019 -1.268,0.433 -2.05,0.159"/></g><g id="g406" transform="translate(12.9109,31.7322)"><path id="path408" style="fill:none;stroke:#636b70;stroke-width:.29300001;stroke-linecap:butt;stroke-linejoin:miter;stroke-miterlimit:3.86400008;stroke-dasharray:none;stroke-opacity:1" d="M 0,0 3.598,6.514 7.16,0 Z"/></g><g id="g410" transform="translate(21.404,20.0447)"><path id="path412" style="fill:none;stroke:#636b70;stroke-width:.20299999;stroke-linecap:butt;stroke-linejoin:miter;stroke-miterlimit:3.86400008;stroke-dasharray:none;stroke-opacity:1" d="m 0,0 -0.215,-0.228 c -0.101,-0.117 -0.122,-1.167 -0.017,-1.216 0.048,-0.027 0.285,-0.141 0.324,-0.127 0.04,0 -0.03,0.132 -0.044,0.181 -0.048,0.306 -0.03,0.967 0.049,1.058 l 0.236,0.241 z"/></g><g id="g414" transform="translate(16.1535,38.9617)"><path id="path416" style="fill:#636b70;fill-opacity:1;fill-rule:evenodd;stroke:none" d="M 0,0 -0.022,28.091 H 0.626 V 0.451 L 0.325,0.023 0.201,-0.146 Z"/></g><g id="g418" transform="translate(24.4968,19.1199)"><path id="path420" style="fill:none;stroke:#636b70;stroke-width:.20299999;stroke-linecap:butt;stroke-linejoin:miter;stroke-miterlimit:3.86400008;stroke-dasharray:none;stroke-opacity:1" d="m 0,0 -0.214,-0.228 c -0.101,-0.123 -0.124,-1.167 -0.018,-1.216 -0.005,-0.018 0.285,-0.118 0.324,-0.106 0.039,0 -0.026,0.11 -0.048,0.16 C 0,-1.084 0.018,-0.424 0.097,-0.333 l 0.241,0.242 z"/></g><g id="g422" transform="translate(25.2605,18.9333)"><path id="path424" style="fill:none;stroke:#636b70;stroke-width:.20299999;stroke-linecap:butt;stroke-linejoin:miter;stroke-miterlimit:3.86400008;stroke-dasharray:none;stroke-opacity:1" d="m 0,0 -0.219,-0.232 c -0.096,-0.119 -0.119,-1.167 -0.013,-1.217 0.048,-0.028 0.28,-0.142 0.32,-0.128 0.043,0 -0.03,0.137 -0.044,0.182 C 0,-1.089 0.018,-0.429 0.097,-0.333 l 0.236,0.237 z"/></g><g id="g426" transform="translate(90.4831,43.4524)"><path id="path428" style="fill:#d32e12;fill-opacity:1;fill-rule:nonzero;stroke:none" d="M 0,0 H 3.97 V -7.813 H 0 v -22.229 c -0.891,-7.85 -5.795,-13.726 -13.749,-13.397 v 7.814 c 3.391,-0.119 5.404,1.224 5.76,5.4 l 0.017,22.412 h -3.742 V 0 h 3.742 l 0.005,5.258 c 0.189,8.28 5.071,14.374 13.881,13.32 V 10.827 C 2.145,11.137 0.035,9.544 0,5.195 Z"/></g><g id="g430" transform="translate(142.133,-2e-4)"><path id="path432" style="fill:none;stroke:#636b70;stroke-width:.58099997;stroke-linecap:butt;stroke-linejoin:miter;stroke-miterlimit:3.86400008;stroke-dasharray:none;stroke-opacity:1" d="M 0,0 V 62.176"/></g><g id="g434" transform="translate(43.9988,-0.0012)"><path id="path436" style="fill:none;stroke:#636b70;stroke-width:.58099997;stroke-linecap:butt;stroke-linejoin:miter;stroke-miterlimit:3.86400008;stroke-dasharray:none;stroke-opacity:1" d="M 0,0 V 62.187"/></g><g id="g438" transform="translate(51.9294,43.3557)"><path id="path440" style="fill:#636b70;fill-opacity:1;fill-rule:evenodd;stroke:none" d="m 0,0 c 0,4.431 2.115,6.053 5.919,5.739 v 7.74 C -2.957,14.541 -7.844,8.359 -7.967,0 V -32.007 H 0 V -7.302 H 5.616 V 0 Z"/></g><g id="g442" transform="translate(71.5447,11.3484)"><path id="path444" style="fill:#636b70;fill-opacity:1;fill-rule:evenodd;stroke:none" d="M 0,0 H 6.221 V 7.986 H 0.667 c -5.015,0 -8.213,3.556 -8.213,8.109 0,4.557 3.198,8.113 8.213,8.113 H 6.221 V 32.13 H 0 c -9.477,0 -15.514,-7.052 -15.514,-16.035 C -15.514,7.111 -9.477,0 0,0"/></g><g id="g446" transform="translate(142.049,29.9226)"><path id="path448" style="fill:#636b70;fill-opacity:1;fill-rule:evenodd;stroke:none" d="m 0,0 c 0,8.419 -5.128,14.345 -13.818,14.345 -4.041,0 -7.542,-1.746 -9.898,-4.554 -2.233,2.808 -5.673,4.554 -9.898,4.554 -8.506,0 -13.998,-6.172 -13.998,-14.345 v -18.588 h 7.966 V 0.187 c 0,3.62 2.475,6.112 6.032,6.112 5.252,0 5.797,-4.302 5.797,-6.112 v -18.775 h 7.965 V 0.187 c 0,3.62 2.532,6.112 6.034,6.112 5.251,0 5.851,-4.302 5.851,-6.112 V -18.588 H 0 Z"/></g></g></g><text id="text452" style="font-variant:normal;font-weight:400;font-size:8.40149975px;font-family:Helvetica;-inkscape-font-specification:Helvetica;writing-mode:lr-tb;fill:#636b70;fill-opacity:1;fill-rule:nonzero;stroke:none" transform="matrix(0.97933702,0,0,-1,147.628,45.5488)"><tspan id="tspan450" x="0 6.73 12.989 15.518 22.718 25.247 31.514 37.319 39.848 42.839 48.645 51.174 57.895 63.23 69.035 75.303 81.57 88.3 93.164 99.894 106.623" y="0">QUÍMICA, BIOTECNOLOGÍ</tspan></text><g id="g454"><g id="g456" clip-path="url(#clipPath460)"><text id="text464" style="font-variant:normal;font-weight:400;font-size:8.40149975px;font-family:Helvetica;-inkscape-font-specification:Helvetica;writing-mode:lr-tb;fill:#636b70;fill-opacity:1;fill-rule:nonzero;stroke:none" transform="matrix(0.97933702,0,0,-1,254.516,45.5488)"><tspan id="tspan462" x="0 5.805" y="0">A</tspan></text></g></g><text id="text468" style="font-variant:normal;font-weight:400;font-size:8.40149975px;font-family:Helvetica;-inkscape-font-specification:Helvetica;writing-mode:lr-tb;fill:#636b70;fill-opacity:1;fill-rule:nonzero;stroke:none" transform="matrix(0.97897994,0,0,-1,147.557,35.0469)"><tspan id="tspan466" x="0 5.663 8.654 15.862 21.054 26.381 32.195 38.454 40.983 46.788 51.661 57.466" y="0">Y MATERIALES</tspan></text><text id="text472" style="font-variant:normal;font-weight:400;font-size:8.43789959px;font-family:Helvetica;-inkscape-font-specification:Helvetica;writing-mode:lr-tb;fill:#636b70;fill-opacity:1;fill-rule:nonzero;stroke:none" transform="matrix(1,0,0,-0.99568613,147.319,21.0586)"><tspan id="tspan470" x="0 4.7 10.328 16.42 22.512 26.596 31.127 36.755 42.848 52.197 58.289 63.917 73.275 79.367 81.713 87.341 93.433 99.525 101.871" y="0">FACULTAD DE CIENCIA</tspan></text><g id="g474"><g id="g476" clip-path="url(#clipPath480)"><text id="text484" style="font-variant:normal;font-weight:400;font-size:8.43789959px;font-family:Helvetica;-inkscape-font-specification:Helvetica;writing-mode:lr-tb;fill:#636b70;fill-opacity:1;fill-rule:nonzero;stroke:none" transform="matrix(1,0,0,-0.99568613,254.821,21.0586)"><tspan id="tspan482" x="0 5.645" y="0">S</tspan></text></g></g><text id="text488" style="font-variant:normal;font-weight:400;font-size:8.43910027px;font-family:Helvetica;-inkscape-font-specification:Helvetica;writing-mode:lr-tb;fill:#636b70;fill-opacity:1;fill-rule:nonzero;stroke:none" transform="matrix(1,0,0,-0.99554455,147.321,10.5576)"><tspan id="tspan486" x="0 5.156 7.502 13.131 15.477 21.57 27.199 32.845 39.993 45.478 52.778 59.808 64.829 69.985 75.614 82.644" y="0">FÍSICAS Y MATEMÁ</tspan></text><g id="g490"><g id="g492" clip-path="url(#clipPath496)"><text id="text500" style="font-variant:normal;font-weight:400;font-size:8.43910027px;font-family:Helvetica;-inkscape-font-specification:Helvetica;writing-mode:lr-tb;fill:#636b70;fill-opacity:1;fill-rule:nonzero;stroke:none" transform="matrix(1,0,0,-0.99554455,235.604,10.5576)"><tspan id="tspan498" x="0 5.156 7.502 13.595 19.224 24.853" y="0">TICAS</tspan></text><text id="text504" style="font-variant:normal;font-weight:400;font-size:8.46560001px;font-family:Helvetica;-inkscape-font-specification:Helvetica;writing-mode:lr-tb;fill:#636b70;fill-opacity:1;fill-rule:nonzero;stroke:none" transform="matrix(0.99675156,0,0,-1,147.321,-0.001)"><tspan id="tspan502" x="0 6.112 12.224 14.578 20.224 25.871 32 37.647 40 46.112 51.759 57.871 67.344 73.456 79.103 88.567 94.679 100.791 103.145 107.852 113.498" y="0">UNIVERSIDAD DE CHILE</tspan></text></g></g><text id="text508" style="font-variant:normal;font-weight:400;font-size:8.40149975px;font-family:Helvetica;-inkscape-font-specification:Helvetica;writing-mode:lr-tb;fill:#636b70;fill-opacity:1;fill-rule:nonzero;stroke:none" transform="matrix(0.84337321,0,0,-1,147.434,56.2197)"><tspan id="tspan506" x="0 6.066 11.67 16.669 22.272 28.212 32.732 38.336 45.334 50.955 57.021 62.028 68.565 70.9 76.966 82.57 84.906 87.241 93.307 99.843 105.447 111.513 113.849 119.453 125.535" y="0">DEPARTAMENTO DE INGENIERÍ</tspan></text><g id="g510"><g id="g512" clip-path="url(#clipPath516)"><text id="text520" style="font-variant:normal;font-weight:400;font-size:8.40149975px;font-family:Helvetica;-inkscape-font-specification:Helvetica;writing-mode:lr-tb;fill:#636b70;fill-opacity:1;fill-rule:nonzero;stroke:none" transform="matrix(0.84337321,0,0,-1,255.274,56.2197)"><tspan id="tspan518" x="0 5.142" y="0">A</tspan></text></g></g></g></svg>