<svg xmlns="http://www.w3.org/2000/svg" xmlns:svg="http://www.w3.org/2000/svg" id="svg5" width="48" height="48" version="1.1" viewBox="0 0 48 48" xml:space="preserve"><defs id="defs2"><style id="style1">.cls-3{fill:url(#linear-gradient-1)}.cls-4{fill:#fc9502}.cls-5{fill:#fce202}</style><linearGradient id="linear-gradient-1" x1="94.141" x2="94.141" y1="255" y2=".188" gradientUnits="userSpaceOnUse"><stop id="stop1" offset="0" stop-color="#ff4c0d"/><stop id="stop2" offset="1" stop-color="#fc9502"/></linearGradient></defs><g id="layer1"><g id="g5719" transform="matrix(1.1899285,0,0,1.1899285,0.65192012,-3.6366721)"><g id="fire" transform="matrix(0.14511228,0,0,0.14511228,5.9595048,4.737645)"><path id="path-1" fill-rule="evenodd" d="m 187.899,164.809 c -2.096,50.059 -43.325,90.003 -93.899,90.003 -51.915,0 -94,-43.5 -94,-94 0,-6.75 -0.121,-20.24 10,-43 6.057,-13.621 9.856,-22.178 12,-30 1.178,-4.299 3.469,-11.129 10,0 3.851,6.562 4,16 4,16 0,0 14.328,-10.995 24,-32 14.179,-30.793 2.866,-49.2 -1,-62 -1.338,-4.428 -2.178,-12.386 7,-9 9.352,3.451 34.076,20.758 47,39 18.445,26.035 25,51 25,51 0,0 5.906,-7.33 8,-15 2.365,-8.661 2.4,-17.239 9.999,-7.999 7.227,8.787 17.96,25.3 24.001,40.999 10.969,28.509 7.899,55.997 7.899,55.997 z" class="cls-3" style="fill:url(#linear-gradient-1)"/><path id="path-2" fill-rule="evenodd" d="m 94,254.812 c -35.899,0 -65,-29.101 -65,-65 0,-21.661 8.729,-34.812 26.896,-52.646 11.632,-11.419 22.519,-25.444 27.146,-34.994 0.911,-1.88 2.984,-11.677 10.977,-0.206 4.193,6.016 10.766,16.715 14.981,25.846 7.266,15.743 9,31 9,31 0,0 7.121,-4.196 12,-15 1.573,-3.482 4.753,-16.664 13.643,-3.484 6.523,9.672 15.484,27.062 15.357,49.484 0,35.899 -29.102,65 -65,65 z" class="cls-4"/><path id="path-3" fill-rule="evenodd" d="m 95,183.812 c 9.25,0 9.25,17.129 21,40 7.824,15.229 -3.879,31 -21,31 -17.121,0 -26,-13.879 -26,-31 0,-17.12 16.75,-40 26,-40 z" class="cls-5"/></g></g></g></svg>