<svg xmlns="http://www.w3.org/2000/svg" x="0" y="0" viewBox="0 0 1000 1000" style="enable-background:new 0 0 1000 1000"><style>.st5{fill:none;stroke:#000;stroke-width:5;stroke-miterlimit:10}.st6{fill:#ee372f}</style><g id="core"><polygon id="XMLID_5_" points="500 75.1 860 665 138.3 665" style="fill:#ec4b38;stroke:#ec4b38;stroke-miterlimit:10"/></g><g id="white_shadows"><linearGradient id="XMLID_4_" x1="519.738" x2="664.412" y1="475.419" y2="380.307" gradientUnits="userSpaceOnUse"><stop offset="0" style="stop-color:#fff"/><stop offset="1" style="stop-color:#fff;stop-opacity:0"/></linearGradient><polygon id="XMLID_8_" points="500 75.1 500 459.5 860 665" style="fill:url(#XMLID_4_)"/><linearGradient id="XMLID_7_" x1="503.455" x2="499.315" y1="465.428" y2="656.491" gradientUnits="userSpaceOnUse"><stop offset="0" style="stop-color:#fff"/><stop offset="1" style="stop-color:#fff;stop-opacity:0"/></linearGradient><polygon id="XMLID_1_" points="860 665 500 459.5 138.3 665" style="fill:url(#XMLID_7_)"/><linearGradient id="XMLID_9_" x1="468.771" x2="333.827" y1="478.042" y2="380.664" gradientUnits="userSpaceOnUse"><stop offset="0" style="stop-color:#fff"/><stop offset="1" style="stop-color:#fff;stop-opacity:0"/></linearGradient><polygon id="XMLID_6_" points="138.3 665 500 459.5 500 75.1" style="fill:url(#XMLID_9_)"/></g><g id="text_ENSIAS"><line id="line" x1="14.3" x2="986.3" y1="728.3" y2="728.3" class="st5"/><line id="line_1_" x1="14.3" x2="986.3" y1="909" y2="909" class="st5"/><polygon id="E" points="145 779 145 759 21 759 21 882.3 150.3 882.3 150.3 864.3 42.3 864.3 42.3 828.3 113.7 828.3 113.7 809.7 41.8 809.7 42 779" class="st6"/><polygon id="N" points="204.3 882.3 204.3 759 229.2 759 323.5 861.2 323.5 759 344.5 759 344.5 882.3 317.5 882.3 225 783.3 225 882.3" class="st6"/><path id="S" d="M516.7,788.3l11.8-12.7c0,0-23.7-18.7-64.7-18.7s-65.2,16.2-65.3,35.3c-0.2,19.2,11.7,33,60.8,34.2 S520.7,837,513,854c-7.7,17-65.7,22.7-105.2-3.7l-13,15.8c0,0,27.3,21.2,73.5,20.8s69.2-16.8,69.2-43s-35.2-37-71.3-36.7 c-36.2,0.3-57.2-9.8-40.3-25C442.7,767.2,499.2,773.8,516.7,788.3z" class="st6"/><rect id="I" width="20.5" height="123.7" x="591" y="759" class="st6"/><path id="A" d="M748.5,759h-25.8l-66.3,123.7h23.3l15.8-27.7H777l14.2,27.7h23.5L748.5,759z M704.2,836.5l31.3-60.2 l32.8,60.2H704.2z" class="st6"/><path id="S_1_" d="M968.7,788.3l11.8-12.7c0,0-23.7-18.7-64.7-18.7s-65.2,16.2-65.3,35.3c-0.2,19.2,11.7,33,60.8,34.2 c49.2,1.2,61.3,10.5,53.7,27.5s-65.7,22.7-105.2-3.7l-13,15.8c0,0,27.3,21.2,73.5,20.8c46.2-0.3,69.2-16.8,69.2-43 s-35.2-37-71.3-36.7c-36.2,0.3-57.2-9.8-40.3-25C894.7,767.2,951.2,773.8,968.7,788.3z" class="st6"/></g></svg>